<svg width="1412" height="1029" viewBox="0 0 1412 1029" fill="none" xmlns="http://www.w3.org/2000/svg">
<path d="M1134.16 545.658H1211.79C1194.09 333.886 1026.26 163.821 817.241 145.869V224.568C988.295 239.256 1119.66 372.355 1134.16 545.684" fill="#B3BFD2"/>
<path d="M700.048 1028.11C491.032 1010.21 322.998 840.12 305.294 628.322L346.586 605.785L382.949 628.322C397.402 801.652 528.995 934.777 700.022 949.439V1028.11H700.048Z" fill="#2D56A3"/>
<path d="M1016.66 1013.11V934.441C1187.71 919.753 1319.07 786.654 1333.57 613.324H1411.23C1393.5 825.122 1225.67 995.213 1016.66 1013.11Z" fill="#CCD5E3"/>
<path d="M77.6295 399.789C92.1076 226.46 223.494 93.361 394.548 78.673V0C185.531 17.9521 17.704 188.017 -1.34318e-05 399.789H77.6295Z" fill="#3983EC"/>
</svg>
