<svg width="60" height="60" viewBox="0 0 60 60" fill="none" xmlns="http://www.w3.org/2000/svg">
<rect x="0.5" y="0.5" width="59" height="59" rx="29.5" stroke="#2D56A3"/>
<path fill-rule="evenodd" clip-rule="evenodd" d="M30 23.5242L30.765 22.7023C32.8777 20.4326 36.3029 20.4326 38.4155 22.7023C40.0637 24.473 40.426 27.1019 39.5026 29.25H34C33.7492 29.25 33.5151 29.3753 33.376 29.584L32 31.6479L28.624 26.584C28.4849 26.3753 28.2508 26.25 28 26.25C27.7492 26.25 27.5151 26.3753 27.376 26.584L25.5986 29.25H20.4974C19.574 27.1019 19.9363 24.473 21.5845 22.7023C23.6971 20.4326 27.1223 20.4326 29.235 22.7023L30 23.5242ZM21.431 30.75C21.4808 30.8081 21.532 30.8653 21.5845 30.9217L28.4699 38.3191C29.3149 39.227 30.685 39.227 31.5301 38.3191L38.4155 30.9217C38.468 30.8653 38.5192 30.8081 38.569 30.75H34.4014L32.624 33.416C32.4849 33.6247 32.2508 33.75 32 33.75C31.7492 33.75 31.5151 33.6247 31.376 33.416L28 28.3521L26.624 30.416C26.4849 30.6247 26.2508 30.75 26 30.75H21.431Z" fill="#2D56A3"/>
</svg>
