<svg width="60" height="60" viewBox="0 0 60 60" fill="none" xmlns="http://www.w3.org/2000/svg">
<rect x="0.5" y="0.5" width="59" height="59" rx="29.5" stroke="#2D56A3"/>
<path d="M32.4112 24.3398V22.4051C32.4112 21.0736 31.3318 19.9941 30.0003 19.9941C28.6687 19.9941 27.5893 21.0736 27.5893 22.4051V24.3398C27.5893 25.0501 27.2126 25.7071 26.5995 26.0659L21.7095 28.9278C20.8292 29.443 21.1946 30.7908 22.2146 30.7908H26.7386C27.2909 30.7908 27.7386 31.2386 27.7386 31.7908V34.2673C27.7386 34.9279 27.5206 35.57 27.1184 36.094L25.3435 38.4062C25.0175 38.8309 25.0865 39.4375 25.4996 39.7781C25.7801 40.0093 26.1645 40.069 26.5019 39.9336L29.2387 38.8109C29.7247 38.6115 30.2696 38.6113 30.7557 38.8104L33.4987 39.9336C33.8361 40.069 34.2204 40.0093 34.5009 39.7781C34.914 39.4375 34.9831 38.8309 34.6571 38.4062L32.8822 36.094C32.48 35.57 32.262 34.9279 32.262 34.2673V31.7908C32.262 31.2386 32.7097 30.7908 33.262 30.7908H37.786C38.806 30.7908 39.1714 29.443 38.2911 28.9278L33.401 26.0659C32.788 25.7071 32.4112 25.0501 32.4112 24.3398Z" fill="#2D56A3"/>
</svg>
