<svg width="60" height="60" viewBox="0 0 60 60" fill="none" xmlns="http://www.w3.org/2000/svg">
<rect x="0.5" y="0.5" width="59" height="59" rx="29.5" stroke="#2D56A3"/>
<path fill-rule="evenodd" clip-rule="evenodd" d="M34.8491 33.8011L37.2085 31.4417C39.5972 29.053 39.5972 25.1802 37.2085 22.7915C34.8198 20.4028 30.947 20.4028 28.5583 22.7915L26.1988 25.151C26.23 25.1738 26.2599 25.1993 26.2881 25.2275L34.7734 33.7128C34.8013 33.7407 34.8265 33.7702 34.8491 33.8011ZM33.8011 34.8491C33.7702 34.8265 33.7407 34.8013 33.7128 34.7734L25.2275 26.2881C25.1993 26.2599 25.1738 26.23 25.151 26.1988L22.7915 28.5583C20.4028 30.947 20.4028 34.8198 22.7915 37.2085C25.1802 39.5972 29.053 39.5972 31.4417 37.2085L33.8011 34.8491ZM34.4189 24.5195C34.7118 24.2266 35.1867 24.2266 35.4795 24.5195C36.944 25.9839 36.944 28.3583 35.4795 29.8228C35.1867 30.1157 34.7118 30.1157 34.4189 29.8228C34.126 29.5299 34.126 29.055 34.4189 28.7621C35.2976 27.8834 35.2976 26.4588 34.4189 25.5801C34.126 25.2872 34.126 24.8124 34.4189 24.5195Z" fill="#2D56A3"/>
</svg>
