<svg width="60" height="60" viewBox="0 0 60 60" fill="none" xmlns="http://www.w3.org/2000/svg">
<rect x="0.5" y="0.5" width="59" height="59" rx="29.5" stroke="#2D56A3"/>
<path fill-rule="evenodd" clip-rule="evenodd" d="M24 39C21.7909 39 20 37.2091 20 35V34C20 33.4477 20.46 33.0163 20.9819 32.8356C22.1565 32.4289 23 31.313 23 30C23 28.687 22.1565 27.5711 20.9819 27.1644C20.46 26.9837 20 26.5523 20 26V25C20 22.7909 21.7909 21 24 21H36C38.2091 21 40 22.7909 40 25V26C40 26.5523 39.54 26.9837 39.0181 27.1644C37.8435 27.5711 37 28.687 37 30C37 31.313 37.8435 32.4289 39.0181 32.8356C39.54 33.0163 40 33.4477 40 34V35C40 37.2091 38.2091 39 36 39H24ZM27 28C27.5523 28 28 27.5523 28 27C28 26.4477 27.5523 26 27 26C26.4477 26 26 26.4477 26 27C26 27.5523 26.4477 28 27 28ZM34 33C34 33.5523 33.5523 34 33 34C32.4477 34 32 33.5523 32 33C32 32.4477 32.4477 32 33 32C33.5523 32 34 32.4477 34 33ZM33.5303 27.5303C33.8232 27.2374 33.8232 26.7626 33.5303 26.4697C33.2374 26.1768 32.7626 26.1768 32.4697 26.4697L26.4697 32.4697C26.1768 32.7626 26.1768 33.2374 26.4697 33.5303C26.7626 33.8232 27.2374 33.8232 27.5303 33.5303L33.5303 27.5303Z" fill="#2D56A3"/>
</svg>
