<svg width="60" height="60" viewBox="0 0 60 60" fill="none" xmlns="http://www.w3.org/2000/svg">
<rect x="0.5" y="0.5" width="59" height="59" rx="29.5" stroke="#2D56A3"/>
<path d="M24.5833 27L30 21L35.0833 27H32L37 33H33L38 39H22L27 33H23L28 27H24.5833Z" fill="#2D56A3"/>
<path d="M30 21L30.763 20.3536L30.0239 19.4812L29.2577 20.3299L30 21ZM24.5833 27L23.8411 26.3299L22.3333 28H24.5833V27ZM28 27L28.7682 27.6402C29.0166 27.3421 29.0702 26.9272 28.9056 26.5758C28.741 26.2245 28.388 26 28 26V27ZM23 33L22.2318 32.3598L20.865 34H23V33ZM27 33L27.7682 33.6402C28.0166 33.3421 28.0702 32.9272 27.9056 32.5758C27.741 32.2245 27.388 32 27 32V33ZM22 39L21.2318 38.3598L19.865 40H22V39ZM35.0833 27V28H37.2412L35.8463 26.3536L35.0833 27ZM32 27V26C31.612 26 31.259 26.2245 31.0944 26.5758C30.9298 26.9272 30.9834 27.3421 31.2318 27.6402L32 27ZM37 33V34H39.135L37.7682 32.3598L37 33ZM33 33V32C32.612 32 32.259 32.2245 32.0944 32.5758C31.9298 32.9272 31.9834 33.3421 32.2318 33.6402L33 33ZM38 39V40H40.135L38.7682 38.3598L38 39ZM29.2577 20.3299L23.8411 26.3299L25.3256 27.6701L30.7423 21.6701L29.2577 20.3299ZM24.5833 28H28V26H24.5833V28ZM27.2318 26.3598L22.2318 32.3598L23.7682 33.6402L28.7682 27.6402L27.2318 26.3598ZM23 34H27V32H23V34ZM26.2318 32.3598L21.2318 38.3598L22.7682 39.6402L27.7682 33.6402L26.2318 32.3598ZM29.237 21.6464L34.3203 27.6464L35.8463 26.3536L30.763 20.3536L29.237 21.6464ZM35.0833 26H32V28H35.0833V26ZM31.2318 27.6402L36.2318 33.6402L37.7682 32.3598L32.7682 26.3598L31.2318 27.6402ZM37 32H33V34H37V32ZM32.2318 33.6402L37.2318 39.6402L38.7682 38.3598L33.7682 32.3598L32.2318 33.6402ZM22 40H38V38H22V40Z" fill="#2D56A3"/>
</svg>
