<svg width="60" height="60" viewBox="0 0 60 60" fill="none" xmlns="http://www.w3.org/2000/svg">
<rect x="0.5" y="0.5" width="59" height="59" rx="29.5" stroke="#2D56A3"/>
<path fill-rule="evenodd" clip-rule="evenodd" d="M30 29C31.6569 29 33 27.6569 33 26C33 24.3431 31.6569 23 30 23C28.3431 23 27 24.3431 27 26C27 27.6569 28.3431 29 30 29ZM30 37C33.3137 37 36 35.6569 36 34C36 32.3431 33.3137 31 30 31C26.6863 31 24 32.3431 24 34C24 35.6569 26.6863 37 30 37ZM24.3817 31.0195C21.912 31.1718 20 32.2246 20 33.5006C20 34.5526 21.2995 35.4528 23.1396 35.8218C22.7284 35.265 22.5 34.6488 22.5 34.0006C22.5 32.8572 23.2108 31.8134 24.3817 31.0195ZM37.5008 34.0006C37.5008 34.6488 37.2724 35.265 36.8612 35.8218C38.7013 35.4528 40.0008 34.5526 40.0008 33.5006C40.0008 32.2246 38.0888 31.1718 35.6191 31.0195C36.79 31.8134 37.5008 32.8572 37.5008 34.0006ZM33.7188 28.5354C34.212 27.8134 34.5005 26.9404 34.5005 26C34.5005 25.6879 34.4687 25.3833 34.4082 25.0891C34.5954 25.0312 34.7943 25 35.0005 25C36.105 25 37.0005 25.8954 37.0005 27C37.0005 28.1046 36.105 29 35.0005 29C34.5128 29 34.0658 28.8254 33.7188 28.5354ZM25 25C25.2062 25 25.4051 25.0312 25.5922 25.0891C25.5318 25.3833 25.5 25.6879 25.5 26C25.5 26.9404 25.7885 27.8134 26.2817 28.5354C25.9346 28.8254 25.4877 29 25 29C23.8954 29 23 28.1046 23 27C23 25.8954 23.8954 25 25 25Z" fill="#2D56A3"/>
</svg>
