<svg width="60" height="60" viewBox="0 0 60 60" fill="none" xmlns="http://www.w3.org/2000/svg">
<rect x="0.5" y="0.5" width="59" height="59" rx="29.5" stroke="#2D56A3"/>
<path fill-rule="evenodd" clip-rule="evenodd" d="M28.75 20C28.75 19.5858 28.4142 19.25 28 19.25C27.5858 19.25 27.25 19.5858 27.25 20V22C27.25 22.4142 27.5858 22.75 28 22.75C28.4142 22.75 28.75 22.4142 28.75 22V21.9999C29.0536 22.228 29.25 22.591 29.25 23V26C29.25 28.3472 27.3472 30.25 25 30.25C22.6528 30.25 20.75 28.3472 20.75 26V23C20.75 22.591 20.9464 22.228 21.25 21.9999V22C21.25 22.4142 21.5858 22.75 22 22.75C22.4142 22.75 22.75 22.4142 22.75 22V20C22.75 19.5858 22.4142 19.25 22 19.25C21.5858 19.25 21.25 19.5858 21.25 20V20.3535C20.0957 20.68 19.25 21.7412 19.25 23V26C19.25 28.9214 21.4287 31.334 24.25 31.7015V36.25C24.25 38.7353 26.2647 40.75 28.75 40.75C31.2353 40.75 33.25 38.7353 33.25 36.25V30.75C33.25 29.6454 34.1454 28.75 35.25 28.75C36.3546 28.75 37.25 29.6454 37.25 30.75V32C37.25 32.0479 37.2545 32.0947 37.2631 32.1401C36.5232 32.4336 36 33.1557 36 34C36 35.1046 36.8954 36 38 36C39.1046 36 40 35.1046 40 34C40 33.1557 39.4768 32.4336 38.7369 32.1401C38.7455 32.0947 38.75 32.0479 38.75 32V30.75C38.75 28.817 37.183 27.25 35.25 27.25C33.317 27.25 31.75 28.817 31.75 30.75V36.25C31.75 37.9069 30.4069 39.25 28.75 39.25C27.0931 39.25 25.75 37.9069 25.75 36.25V31.7015C28.5713 31.334 30.75 28.9214 30.75 26V23C30.75 21.7412 29.9043 20.68 28.75 20.3535V20Z" fill="#2D56A3"/>
</svg>
