<svg width="60" height="60" viewBox="0 0 60 60" fill="none" xmlns="http://www.w3.org/2000/svg">
<rect x="0.5" y="0.5" width="59" height="59" rx="29.5" stroke="#2D56A3"/>
<path d="M21.0329 26.75L38.9671 26.75C39.9872 26.75 40.3878 25.3986 39.539 24.8206L31.1438 19.1038C30.4512 18.6321 29.5488 18.6321 28.8562 19.1038L20.461 24.8206C19.6122 25.3986 20.0128 26.75 21.0329 26.75Z" fill="#2D56A3"/>
<path d="M23.5 28.25H26.5V33.25H23.5V28.25Z" fill="#2D56A3"/>
<path d="M36.5 28.25H33.5V33.25H36.5V28.25Z" fill="#2D56A3"/>
<path d="M28.5 28.25H31.5V33.25H28.5V28.25Z" fill="#2D56A3"/>
<path d="M38.2764 35.3028C38.107 34.964 37.7607 34.75 37.382 34.75L22.618 34.75C22.2393 34.75 21.893 34.964 21.7236 35.3028L20.7236 37.3028C20.3912 37.9677 20.8747 38.75 21.618 38.75H38.382C39.1253 38.75 39.6088 37.9677 39.2764 37.3028L38.2764 35.3028Z" fill="#2D56A3"/>
</svg>
