<svg width="60" height="60" viewBox="0 0 60 60" fill="none" xmlns="http://www.w3.org/2000/svg">
<rect x="0.5" y="0.5" width="59" height="59" rx="29.5" stroke="#2D56A3"/>
<path fill-rule="evenodd" clip-rule="evenodd" d="M23.3833 22.5026C24.9711 21.1005 27.0076 20.1948 29.2499 20.0286V29.2509H25.8052C25.6593 26.722 24.78 24.3956 23.3833 22.5026ZM24.3024 29.2509C24.1644 27.1395 23.4484 25.1976 22.3212 23.5944C21.022 25.1499 20.1866 27.1063 20.0276 29.2509H24.3024ZM20.0276 30.7509H24.3024C24.1644 32.8622 23.4484 34.8041 22.3212 36.4073C21.022 34.8518 20.1866 32.8955 20.0276 30.7509ZM25.8052 30.7509H29.2499V39.9732C27.0076 39.8069 24.9711 38.9012 23.3833 37.4991C24.78 35.6061 25.6593 33.2797 25.8052 30.7509ZM30.7499 30.7509V39.9732C32.9922 39.8069 35.0287 38.9012 36.6165 37.4991C35.2197 35.6061 34.3405 33.2797 34.1945 30.7509H30.7499ZM35.6974 30.7509C35.8353 32.8622 36.5513 34.8041 37.6786 36.4073C38.9778 34.8518 39.8132 32.8955 39.9722 30.7509H35.6974ZM39.9722 29.2509H35.6974C35.8353 27.1395 36.5513 25.1976 37.6786 23.5944C38.9778 25.1499 39.8132 27.1063 39.9722 29.2509ZM34.1945 29.2509H30.7499V20.0286C32.9922 20.1948 35.0287 21.1005 36.6165 22.5026C35.2197 24.3956 34.3405 26.722 34.1945 29.2509Z" fill="#2D56A3"/>
</svg>
