<svg width="16" height="16" viewBox="0 0 16 16" fill="none" xmlns="http://www.w3.org/2000/svg">
<path d="M13.7238 8.94281L14.0774 9.29636L13.7238 8.94281ZM13.7238 7.05719L13.3703 7.41074L13.7238 7.05719ZM0.666626 8.5H14V7.5H0.666626V8.5ZM13.3703 8.58926L10.3131 11.6464L11.0202 12.3536L14.0774 9.29636L13.3703 8.58926ZM10.3131 4.35355L13.3703 7.41074L14.0774 6.70364L11.0202 3.64645L10.3131 4.35355ZM14.0774 9.29636C14.2896 9.08414 14.4851 8.89015 14.6213 8.71158C14.7664 8.52148 14.8905 8.29135 14.8905 8H13.8905C13.8905 8.00043 13.8905 8.00043 13.8905 8.00013C13.8905 7.99984 13.8906 7.99965 13.8906 7.9997C13.8905 7.99977 13.8904 8.00043 13.89 8.0018C13.8895 8.00318 13.8887 8.00551 13.8873 8.00887C13.8813 8.02336 13.8657 8.05336 13.8263 8.105C13.7403 8.21769 13.6025 8.35704 13.3703 8.58926L14.0774 9.29636ZM13.3703 7.41074C13.6025 7.64296 13.7403 7.78231 13.8263 7.895C13.8657 7.94664 13.8813 7.97664 13.8873 7.99114C13.8887 7.99449 13.8895 7.99682 13.89 7.9982C13.8904 7.99957 13.8905 8.00023 13.8906 8.0003C13.8906 8.00035 13.8905 8.00016 13.8905 7.99987C13.8905 7.99957 13.8905 7.99957 13.8905 8H14.8905C14.8905 7.70865 14.7664 7.47852 14.6213 7.28842C14.4851 7.10985 14.2896 6.91586 14.0774 6.70364L13.3703 7.41074Z" fill="#71717E"/>
</svg>
