<svg width="24" height="24" viewBox="0 0 24 24" fill="none" xmlns="http://www.w3.org/2000/svg">
<path d="M12.0229 24H11.9701C5.36984 24 0 18.6286 0 12.0264V11.9736C0 5.37144 5.36984 0 11.9701 0H12.0229C18.6231 0 23.9929 5.37144 23.9929 11.9736V12.0264C23.9929 18.6286 18.6231 24 12.0229 24ZM11.9701 0.812375C5.81733 0.812375 0.812136 5.81906 0.812136 11.9736V12.0264C0.812136 18.181 5.81733 23.1876 11.9701 23.1876H12.0229C18.1756 23.1876 23.1808 18.181 23.1808 12.0264V11.9736C23.1808 5.81906 18.1756 0.812375 12.0229 0.812375H11.9701Z" fill="#2D56A3"/>
<path d="M13.6107 9.30817V11.8338H16.7341L16.2396 15.2361H13.6107V23.0747C13.0836 23.1478 12.5443 23.186 11.997 23.186C11.3651 23.186 10.7446 23.1356 10.1404 23.0381V15.2361H7.25977V11.8338H10.1404V8.74358C10.1404 6.82637 11.694 5.27148 13.6115 5.27148V5.27311C13.6172 5.27311 13.622 5.27148 13.6277 5.27148H16.735V8.21391H14.7046C14.1012 8.21391 13.6115 8.70377 13.6115 9.30736L13.6107 9.30817Z" fill="#2D56A3"/>
</svg>
