<svg width="24" height="24" viewBox="0 0 24 24" fill="none" xmlns="http://www.w3.org/2000/svg">
<path d="M12.0229 24H11.9701C5.36985 24 0 18.6286 0 12.0264V11.9736C0 5.37143 5.36985 0 11.9701 0H12.0229C18.6231 0 23.9929 5.37143 23.9929 11.9736V12.0264C23.9929 18.6286 18.6231 24 12.0229 24ZM11.9701 0.812375C5.81734 0.812375 0.812136 5.81905 0.812136 11.9736V12.0264C0.812136 18.181 5.81734 23.1876 11.9701 23.1876H12.0229C18.1756 23.1876 23.1808 18.181 23.1808 12.0264V11.9736C23.1808 5.81905 18.1756 0.812375 12.0229 0.812375H11.9701Z" fill="#2D56A3"/>
<path d="M5.93427 8.1124C5.62891 7.82888 5.47705 7.47794 5.47705 7.06037C5.47705 6.64281 5.62972 6.27642 5.93427 5.99209C6.23964 5.70857 6.63271 5.56641 7.11431 5.56641C7.59591 5.56641 7.97355 5.70857 8.27811 5.99209C8.58347 6.27561 8.73533 6.63225 8.73533 7.06037C8.73533 7.4885 8.58266 7.82888 8.27811 8.1124C7.97274 8.39591 7.58535 8.53808 7.11431 8.53808C6.64327 8.53808 6.23964 8.39591 5.93427 8.1124ZM8.4787 9.73877V18.4312H5.73287V9.73877H8.4787Z" fill="#2D56A3"/>
<path d="M17.6196 10.5979C18.2182 11.2478 18.517 12.1398 18.517 13.2755V18.2781H15.9093V13.6281C15.9093 13.0553 15.7606 12.6102 15.4642 12.2933C15.1678 11.9765 14.7682 11.8173 14.2679 11.8173C13.7677 11.8173 13.3681 11.9757 13.0716 12.2933C12.7752 12.6102 12.6266 13.0553 12.6266 13.6281V18.2781H10.0034V9.71486H12.6266V10.8506C12.8922 10.472 13.2503 10.173 13.7003 9.95288C14.1502 9.73272 14.6561 9.62305 15.219 9.62305C16.2211 9.62305 17.0219 9.948 17.6196 10.5979Z" fill="#2D56A3"/>
</svg>
