<svg width="60" height="60" viewBox="0 0 60 60" fill="none" xmlns="http://www.w3.org/2000/svg">
<rect x="0.5" y="0.5" width="59" height="59" rx="29.5" stroke="#2D56A3"/>
<path d="M40 22.56C40.01 21.87 39.74 21.23 39.26 20.74C38.77 20.25 38.12 20.03 37.44 20C36.75 20.01 36.11 20.28 35.64 20.78L32.17 24.39L23.38 21.47C23.1 21.39 22.81 21.46 22.61 21.66L20.67 23.6C20.51 23.76 20.43 23.99 20.45 24.21C20.48 24.44 20.61 24.65 20.81 24.77L27.72 29.03L24.74 32.13L22.63 31.79C22.39 31.75 22.15 31.83 21.97 32L20.22 33.75C20.04 33.94 19.96 34.2 20.02 34.45C20.08 34.7 20.26 34.91 20.5 34.99L23.84 36.16L25.01 39.5C25.09 39.74 25.3 39.92 25.55 39.98C25.6 39.99 25.66 40 25.72 40C25.91 40 26.1 39.92 26.25 39.78L28 38.02C28.17 37.85 28.25 37.61 28.21 37.37L27.86 35.26L30.97 32.28L35.23 39.19C35.35 39.39 35.56 39.52 35.78 39.55C36.01 39.57 36.24 39.49 36.4 39.33L38.34 37.39C38.54 37.19 38.61 36.89 38.52 36.62L35.61 27.82L39.22 24.36C39.72 23.89 39.99 23.25 40 22.56Z" fill="#2D56A3"/>
</svg>
