<svg width="60" height="60" viewBox="0 0 60 60" fill="none" xmlns="http://www.w3.org/2000/svg">
<rect x="0.5" y="0.5" width="59" height="59" rx="29.5" stroke="#2D56A3"/>
<g clip-path="url(#clip0_362_250)">
<path d="M39 21V23C39 32.627 33.627 37 27 37H25.098C25.31 33.988 26.248 32.165 28.696 29.999C29.9 28.934 29.798 28.319 29.205 28.672C25.121 31.102 23.093 34.386 23.003 39.63L23 40H21C21 38.637 21.116 37.4 21.346 36.268C21.116 34.974 21 33.218 21 31C21 25.477 25.477 21 31 21C33 21 35 22 39 21Z" fill="#2D56A3"/>
</g>
<defs>
<clipPath id="clip0_362_250">
<rect width="24" height="24" fill="white" transform="translate(18 18)"/>
</clipPath>
</defs>
</svg>
