<svg width="60" height="60" viewBox="0 0 60 60" fill="none" xmlns="http://www.w3.org/2000/svg">
<rect x="0.5" y="0.5" width="59" height="59" rx="29.5" stroke="#2D56A3"/>
<path d="M37.1998 20H22.8098C21.2598 20 20.0098 21.26 20.0098 22.81V33.1C20.0098 33.97 20.3998 34.74 21.0198 35.26C21.5098 35.67 22.1298 35.91 22.8098 35.91H27.2598L26.8298 38.5H25.8298C25.4198 38.5 25.0798 38.84 25.0798 39.25C25.0798 39.66 25.4198 40 25.8298 40H34.0498C34.4698 40 34.7998 39.66 34.7998 39.25C34.7998 38.84 34.4698 38.5 34.0498 38.5H33.0598L32.6298 35.91H37.1998C37.8898 35.91 38.5098 35.67 38.9998 35.26C39.6198 34.74 40.0098 33.97 40.0098 33.1V22.81C40.0098 21.26 38.7498 20 37.1998 20ZM21.5098 32.75C21.5698 32.77 21.6398 32.79 21.7198 32.79H38.5098V33.1C38.5098 33.82 37.9198 34.41 37.1998 34.41H22.8098C22.0898 34.41 21.5098 33.82 21.5098 33.1V32.75Z" fill="#2D56A3"/>
</svg>
