<svg width="60" height="60" viewBox="0 0 60 60" fill="none" xmlns="http://www.w3.org/2000/svg">
<rect x="0.5" y="0.5" width="59" height="59" rx="29.5" stroke="#2D56A3"/>
<path d="M30.6437 34.635C30.1637 35.37 29.3387 35.805 28.4537 35.805L28.2287 35.79C27.2987 35.715 26.4587 35.13 26.0687 34.26L23.7887 29.25L22.6037 30.435C22.1237 30.93 21.4487 31.2 20.7587 31.2H17.8337L29.1137 42.48C29.1737 42.54 29.2637 42.63 29.3987 42.705C29.5787 42.825 29.7887 42.885 29.9987 42.885C30.2237 42.885 30.4337 42.825 30.6137 42.705C30.6887 42.66 30.8387 42.525 30.8987 42.465L42.1937 31.185H32.9537L30.6437 34.635Z" fill="#2D56A3"/>
<path d="M16.125 25.9501H19.665L22.77 22.8601C23.265 22.3651 23.925 22.0951 24.63 22.0951C24.78 22.0951 24.93 22.1101 25.08 22.1251C25.935 22.2901 26.655 22.8451 27.015 23.6251L28.905 27.7951L29.355 27.1051C29.85 26.3701 30.66 25.9351 31.545 25.9351H43.875C44.25 25.9351 44.595 26.0101 44.91 26.1601C44.97 25.8151 45 25.4401 45 25.0801C45 22.9501 44.175 20.9551 42.675 19.4401C39.57 16.3651 34.53 16.3501 31.425 19.4401L30 20.8651L28.59 19.4401C25.485 16.3501 20.445 16.3501 17.34 19.4401C15.825 20.9401 15 22.9501 15 25.0801C15 25.4551 15.03 25.8151 15.09 26.1751C15.405 26.0251 15.765 25.9501 16.125 25.9501Z" fill="#2D56A3"/>
<path d="M43.875 27.4351H31.545C31.17 27.4351 30.81 27.6151 30.615 27.9301L28.65 30.8701L25.65 24.2551C25.5 23.9101 25.185 23.6701 24.825 23.6101C24.45 23.5501 24.09 23.6551 23.82 23.9251L20.28 27.4501H16.125C15.87 27.4501 15.645 27.5401 15.45 27.6901C15.18 27.8851 15 28.2151 15 28.5751C15 29.2051 15.51 29.7001 16.125 29.7001H16.485H20.76C21.045 29.7001 21.345 29.5951 21.555 29.3701L24.27 26.6551L27.435 33.6451C27.6 34.0201 27.96 34.2751 28.365 34.3051H28.455C28.83 34.3051 29.19 34.1251 29.4 33.8101L32.145 29.6851H43.515H43.875C44.505 29.6851 45 29.1751 45 28.5601C45 28.1851 44.82 27.8701 44.55 27.6751C44.37 27.5251 44.13 27.4351 43.875 27.4351Z" fill="#2D56A3"/>
</svg>
