<svg width="24" height="24" viewBox="0 0 24 24" fill="none" xmlns="http://www.w3.org/2000/svg">
<path d="M12.0229 24H11.9701C5.36985 24 0 18.6286 0 12.0264V11.9736C0 5.37142 5.36985 0 11.9701 0H12.0229C18.6231 0 23.9929 5.37142 23.9929 11.9736V12.0264C23.9929 18.6286 18.6231 24 12.0229 24ZM11.9701 0.812375C5.81733 0.812375 0.812136 5.81904 0.812136 11.9736V12.0264C0.812136 18.181 5.81733 23.1876 11.9701 23.1876H12.0229C18.1756 23.1876 23.1808 18.181 23.1808 12.0264V11.9736C23.1808 5.81904 18.1756 0.812375 12.0229 0.812375H11.9701Z" fill="#2D56A3"/>
<path d="M5.10654 5.65625L10.452 12.8052L5.07324 18.6177H6.28414L10.9937 13.529L14.7986 18.6177H18.9185L13.2726 11.0667L18.2794 5.65625H17.0685L12.7317 10.3429L9.22732 5.65625H5.10735H5.10654ZM6.88674 6.54826H8.77902L17.1367 17.7257H15.2444L6.88674 6.54826Z" fill="#2D56A3"/>
</svg>
